<?xml version="1.0" encoding="utf-8"?>
<!-- Generator: Adobe Illustrator 18.1.0, SVG Export Plug-In . SVG Version: 6.00 Build 0)  -->
<!DOCTYPE svg PUBLIC "-//W3C//DTD SVG 1.1//EN" "http://www.w3.org/Graphics/SVG/1.1/DTD/svg11.dtd">
<svg version="1.1" id="Calque_1" xmlns="http://www.w3.org/2000/svg" xmlns:xlink="http://www.w3.org/1999/xlink" x="0px" y="0px"
	 width="300px" height="64px" viewBox="0 0 300 64" enable-background="new 0 0 300 64" xml:space="preserve">
<g>
	<g>
		<rect x="1.7" y="9.6" fill="#1F458A" width="77.2" height="43.9"/>
		<path fill="#FFFFFF" d="M78.8,9.7v43.7H1.9V9.7H78.8 M79,9.4h-0.3H1.9H1.6v0.3v43.7v0.3h0.3h76.9H79v-0.3V9.7V9.4L79,9.4z"/>
	</g>
	<g>
		<path fill="#FFFFFF" d="M49.5,26.3c1-1.3,1.9-4.4,0.4-6.6c-1-1.4-2.6-2.3-4.3-2.6c-4.5-1-9.1,0.4-13,2.5c-3.4,1.8-6.8,4.2-9,7.4
			c-0.8,1.1-1.4,2.3-1.8,3.8c-0.4,1.5-0.5,3.1-0.3,4.6c1.2,8.1,9.9,11.1,16.9,10.9c4.7-0.2,9.5-1.5,13.7-3.8
			c3.7-2.1,7.3-5.1,9.6-8.8c0.1-0.2,0.9-1.6,1.2-1.4c0.3,0.2-0.6,1.6-0.7,1.7c-2.4,3.9-5.6,7.3-9.3,9.9c-3.9,2.8-8.5,4.6-13.2,5.2
			c-4,0.6-8.3,0.4-12.1-1.2c-3.2-1.3-6-3.6-7.4-7c-1.2-3.1-0.9-6.5,0.2-9.6c3.2-8,10.3-14.3,18.2-16.9c3.6-1.2,8.7-1.8,11.9,0.8
			C54.5,18.4,52.8,23.8,49.5,26.3"/>
	</g>
	<polygon fill="#FDCB0E" points="40.5,21.7 41.6,21 40.3,21 39.9,19.8 39.5,21 38.2,21 39.2,21.7 38.8,22.9 39.9,22.2 40.9,22.9 	
		"/>
	<polygon fill="#FDCB0E" points="45.9,23.1 46.9,22.4 45.6,22.4 45.2,21.2 44.8,22.4 43.5,22.4 44.5,23.1 44.2,24.4 45.2,23.6 
		46.2,24.4 	"/>
	<polygon fill="#FDCB0E" points="49.8,27.1 50.8,26.3 49.5,26.3 49.1,25.1 48.7,26.3 47.4,26.3 48.5,27.1 48.1,28.3 49.1,27.5 
		50.2,28.3 	"/>
	<polygon fill="#FDCB0E" points="51.2,32.5 52.2,31.7 50.9,31.7 50.5,30.5 50.1,31.7 48.8,31.7 49.9,32.5 49.5,33.7 50.5,32.9 
		51.6,33.7 	"/>
	<polygon fill="#FDCB0E" points="49.8,37.8 50.8,37.1 49.5,37.1 49.1,35.8 48.7,37.1 47.4,37.1 48.5,37.8 48.1,39.1 49.1,38.3 
		50.2,39.1 	"/>
	<polygon fill="#FDCB0E" points="45.9,41.7 46.9,41 45.6,41 45.2,39.8 44.8,41 43.5,41 44.5,41.7 44.2,43 45.2,42.2 46.2,43 	"/>
	<polygon fill="#FDCB0E" points="40.5,43.2 41.6,42.5 40.3,42.5 39.9,41.2 39.5,42.5 38.2,42.5 39.2,43.2 38.8,44.5 39.9,43.7 
		40.9,44.5 	"/>
	<polygon fill="#FDCB0E" points="35.2,41.7 36.2,41 34.9,41 34.5,39.8 34.1,41 32.9,41 33.9,41.7 33.5,43 34.5,42.2 35.6,43 	"/>
	<polygon fill="#FDCB0E" points="31.3,37.8 32.3,37.1 31,37.1 30.6,35.8 30.2,37.1 28.9,37.1 30,37.8 29.6,39.1 30.6,38.3 
		31.7,39.1 	"/>
	<polygon fill="#FDCB0E" points="29.8,32.5 30.9,31.7 29.6,31.7 29.2,30.5 28.8,31.7 27.5,31.7 28.5,32.5 28.1,33.7 29.2,32.9 
		30.2,33.7 	"/>
	<polygon fill="#FDCB0E" points="31.3,27.1 32.3,26.3 31,26.3 30.6,25.1 30.2,26.3 28.9,26.3 30,27.1 29.6,28.3 30.6,27.5 
		31.7,28.3 	"/>
	<polygon fill="#FDCB0E" points="35.2,23.1 36.2,22.4 34.9,22.4 34.5,21.2 34.1,22.4 32.9,22.4 33.9,23.1 33.5,24.4 34.5,23.6 
		35.6,24.4 	"/>
	<g>
		<path fill="#FFFFFF" d="M48.5,27.1c-1.5,1.7-3.9,3.4-6.8,4.4c-1.9,0.7-3.8,1-5.5,1l1.3-2.6C41.6,30,46.9,28.4,48.5,27.1"/>
	</g>
	<g>
		<path fill="#FFFFFF" d="M3.8,61.7C3,61.7,2.4,61.5,2,61c-0.4-0.5-0.6-1.1-0.6-1.9c0-0.8,0.2-1.5,0.7-2c0.4-0.5,1-0.7,1.8-0.7
			c0.5,0,1,0.1,1.6,0.2v0.7C4.8,57.1,4.3,57,3.9,57c-0.6,0-1,0.2-1.3,0.6c-0.3,0.4-0.5,0.9-0.5,1.5c0,0.6,0.2,1.1,0.5,1.5
			c0.3,0.4,0.8,0.6,1.3,0.6c0.5,0,1-0.2,1.5-0.4v0.6C4.9,61.5,4.4,61.7,3.8,61.7z"/>
		<path fill="#FFFFFF" d="M8.3,61.7c-0.7,0-1.3-0.3-1.7-0.7C6.2,60.5,6,59.8,6,59.1c0-0.8,0.2-1.4,0.6-1.9c0.4-0.5,1-0.7,1.7-0.7
			c0.7,0,1.3,0.3,1.7,0.7c0.4,0.5,0.7,1.1,0.7,1.9c0,0.8-0.2,1.4-0.7,1.9C9.6,61.4,9.1,61.7,8.3,61.7z M8.4,61.2
			c0.5,0,0.9-0.2,1.2-0.6c0.3-0.4,0.4-0.9,0.4-1.5c0-0.7-0.2-1.1-0.4-1.5C9.2,57.2,8.9,57,8.4,57c-0.5,0-0.9,0.2-1.2,0.6
			c-0.3,0.4-0.4,0.9-0.4,1.5c0,0.7,0.2,1.2,0.4,1.5C7.5,60.9,7.8,61.2,8.4,61.2z"/>
		<path fill="#FFFFFF" d="M12.1,61.5v-4.9h0.7l2.5,3.8v-3.8h0.6v5h-0.7l-2.5-3.8v3.8L12.1,61.5L12.1,61.5z"/>
		<path fill="#FFFFFF" d="M18.4,61.7c-0.4,0-0.8-0.1-1.3-0.2v-0.7c0.6,0.3,1,0.4,1.4,0.4c0.3,0,0.5-0.1,0.7-0.2
			c0.2-0.2,0.3-0.4,0.3-0.6s-0.1-0.4-0.2-0.5c-0.1-0.2-0.3-0.3-0.6-0.5l-0.4-0.2c-0.4-0.3-0.7-0.5-0.9-0.7c-0.2-0.2-0.3-0.5-0.3-0.8
			c0-0.4,0.2-0.7,0.4-0.9c0.3-0.3,0.6-0.4,1.1-0.4c0.4,0,0.8,0.1,1.2,0.2v0.7c-0.5-0.2-0.9-0.3-1.2-0.3c-0.3,0-0.5,0-0.6,0.2
			c-0.2,0.1-0.3,0.3-0.3,0.5c0,0.2,0.1,0.3,0.2,0.5c0.1,0.1,0.3,0.3,0.7,0.5l0.4,0.2c0.4,0.3,0.7,0.5,0.9,0.7
			c0.2,0.2,0.3,0.5,0.3,0.8c0,0.4-0.2,0.8-0.5,1C19.3,61.5,18.9,61.7,18.4,61.7z"/>
		<path fill="#FFFFFF" d="M21.5,61.5v-4.9h2.8v0.5h-2.1v1.6h1.7v0.5h-1.7V61h2.3v0.5H21.5z"/>
		<path fill="#FFFFFF" d="M25.6,61.5v-4.9h0.7v5L25.6,61.5L25.6,61.5z"/>
		<path fill="#FFFFFF" d="M28,61.5v-4.9h0.7v4.5H31v0.5L28,61.5L28,61.5z"/>
		<path fill="#FFFFFF" d="M34.5,61.5v-4.9h1.7c0.5,0,0.9,0,1.2,0.2c0.3,0.1,0.6,0.3,0.8,0.6c0.4,0.4,0.5,1,0.5,1.6
			c0,0.8-0.2,1.5-0.7,1.9c-0.5,0.5-1.1,0.7-1.8,0.7H34.5z M35.2,61h0.9c0.7,0,1.1-0.2,1.4-0.5c0.3-0.4,0.5-0.9,0.5-1.5
			c0-0.6-0.2-1-0.4-1.4c-0.2-0.2-0.4-0.4-0.6-0.4c-0.3-0.1-0.6-0.1-1.1-0.1h-0.6V61H35.2z"/>
		<path fill="#FFFFFF" d="M39.8,61.5v-4.9h2.8v0.5h-2.1v1.6h1.7v0.5h-1.7V61h2.3v0.5H39.8z"/>
		<path fill="#FFFFFF" d="M46.3,61.5v-4.9H47v4.5h2.3v0.5L46.3,61.5L46.3,61.5z"/>
		<path fill="#FFFFFF" d="M50.4,58.1v-0.3c0.1-0.1,0.2-0.1,0.3-0.3c0.1-0.1,0.1-0.3,0.1-0.5v0h-0.3v-0.8h0.8V57
			c0,0.4-0.1,0.7-0.2,0.9C50.9,58,50.7,58.1,50.4,58.1z"/>
		<path fill="#FFFFFF" d="M52.8,61.5v-4.9h2.8v0.5h-2.1v1.6h1.7v0.5h-1.7V61h2.3v0.5H52.8z"/>
		<path fill="#FFFFFF" d="M56.9,56.6h0.7v3.1c0,0.5,0.1,0.9,0.3,1.1c0.2,0.2,0.5,0.4,0.9,0.4c0.4,0,0.7-0.1,0.9-0.3
			c0.2-0.2,0.3-0.6,0.3-1.1v-3.2h0.6v3.1c0,0.7-0.2,1.2-0.4,1.5c-0.3,0.3-0.7,0.5-1.3,0.5c-0.6,0-1.1-0.2-1.4-0.5
			c-0.3-0.3-0.5-0.8-0.5-1.5V56.6z"/>
		<path fill="#FFFFFF" d="M61.6,61.5v-4.9h1.5c0.5,0,0.9,0.1,1.1,0.3c0.3,0.2,0.4,0.5,0.4,0.9c0,0.7-0.4,1.1-1,1.4l1.7,2.3h-0.9
			L63,59.5h-0.7v2.1L61.6,61.5L61.6,61.5z M62.3,58.9h0.3c0.9,0,1.3-0.4,1.3-1c0-0.5-0.4-0.8-1.1-0.8h-0.5V58.9z"/>
		<path fill="#FFFFFF" d="M68.3,61.7c-0.7,0-1.3-0.3-1.7-0.7c-0.4-0.5-0.6-1.1-0.6-1.9c0-0.8,0.2-1.4,0.6-1.9c0.4-0.5,1-0.7,1.7-0.7
			c0.7,0,1.3,0.3,1.7,0.7c0.4,0.5,0.7,1.1,0.7,1.9c0,0.8-0.2,1.4-0.7,1.9C69.6,61.4,69,61.7,68.3,61.7z M68.3,61.2
			c0.5,0,0.9-0.2,1.2-0.6c0.3-0.4,0.4-0.9,0.4-1.5c0-0.7-0.2-1.1-0.4-1.5c-0.3-0.4-0.7-0.6-1.2-0.6c-0.5,0-0.9,0.2-1.2,0.6
			c-0.3,0.4-0.4,0.9-0.4,1.5c0,0.7,0.2,1.2,0.4,1.5C67.4,60.9,67.8,61.2,68.3,61.2z"/>
		<path fill="#FFFFFF" d="M72,61.5v-4.9h1.4c0.6,0,1,0.1,1.3,0.3c0.3,0.2,0.4,0.5,0.4,1c0,0.5-0.2,0.9-0.6,1.2
			c-0.4,0.3-0.9,0.5-1.5,0.5h-0.3v2L72,61.5L72,61.5z M72.8,59.1h0.3c0.4,0,0.8-0.1,1-0.3c0.3-0.2,0.4-0.5,0.4-0.8
			c0-0.3-0.1-0.5-0.3-0.6c-0.2-0.1-0.5-0.2-0.9-0.2h-0.5V59.1z"/>
		<path fill="#FFFFFF" d="M76.2,61.5v-4.9H79v0.5h-2.1v1.6h1.7v0.5h-1.7V61h2.3v0.5H76.2z"/>
	</g>
	<g>
		<path fill="#FFFFFF" d="M3.8,6.9C3,6.9,2.4,6.7,2,6.2C1.6,5.8,1.4,5.2,1.4,4.3c0-0.8,0.2-1.5,0.7-1.9c0.4-0.5,1-0.7,1.8-0.7
			c0.5,0,1,0.1,1.6,0.2v0.7C4.8,2.3,4.3,2.2,3.9,2.2c-0.6,0-1,0.2-1.3,0.6C2.3,3.1,2.2,3.6,2.2,4.3c0,0.6,0.2,1.1,0.5,1.5
			C2.9,6.1,3.4,6.3,4,6.3c0.5,0,1-0.2,1.5-0.4v0.6C4.9,6.7,4.4,6.9,3.8,6.9z"/>
		<path fill="#FFFFFF" d="M8.6,6.9c-0.7,0-1.3-0.3-1.7-0.7C6.5,5.7,6.3,5,6.3,4.3c0-0.8,0.2-1.4,0.6-1.9c0.4-0.5,1-0.7,1.7-0.7
			c0.7,0,1.3,0.3,1.7,0.7C10.7,2.8,11,3.5,11,4.3c0,0.8-0.2,1.4-0.7,1.9C9.9,6.6,9.3,6.9,8.6,6.9z M8.6,6.3c0.5,0,0.9-0.2,1.2-0.6
			c0.3-0.4,0.4-0.9,0.4-1.5c0-0.7-0.2-1.1-0.4-1.5C9.5,2.3,9.1,2.1,8.6,2.1c-0.5,0-0.9,0.2-1.2,0.6C7.2,3.1,7,3.6,7,4.2
			c0,0.7,0.2,1.2,0.4,1.5C7.7,6.2,8.1,6.3,8.6,6.3z"/>
		<path fill="#FFFFFF" d="M12.6,1.8h0.7v3.1c0,0.5,0.1,0.9,0.3,1.1c0.2,0.2,0.5,0.4,0.9,0.4c0.4,0,0.7-0.1,0.9-0.3
			c0.2-0.2,0.3-0.6,0.3-1.1V1.8h0.6v3.1c0,0.7-0.2,1.2-0.4,1.5c-0.3,0.4-0.7,0.5-1.3,0.5c-0.6,0-1.1-0.2-1.4-0.5
			c-0.3-0.3-0.5-0.8-0.5-1.5V1.8z"/>
		<path fill="#FFFFFF" d="M17.6,6.7v-5h0.7l2.5,3.8V1.8h0.6v5h-0.7l-2.5-3.8v3.8H17.6z"/>
		<path fill="#FFFFFF" d="M25.3,6.9c-0.8,0-1.4-0.2-1.8-0.7c-0.4-0.5-0.6-1.1-0.6-1.9c0-0.8,0.2-1.5,0.7-1.9c0.4-0.5,1-0.7,1.8-0.7
			c0.5,0,1,0.1,1.6,0.2v0.7c-0.8-0.3-1.3-0.4-1.7-0.4c-0.6,0-1,0.2-1.3,0.6c-0.3,0.4-0.5,0.9-0.5,1.5c0,0.6,0.2,1.1,0.5,1.5
			c0.3,0.4,0.8,0.6,1.3,0.6c0.5,0,1-0.2,1.5-0.4v0.6C26.4,6.7,25.9,6.9,25.3,6.9z"/>
		<path fill="#FFFFFF" d="M28.1,6.7v-5h0.7v5H28.1z"/>
		<path fill="#FFFFFF" d="M30.8,6.7v-5h0.7v4.5h2.3v0.5H30.8z"/>
		<path fill="#FFFFFF" d="M39.9,6.9c-0.7,0-1.3-0.3-1.7-0.7c-0.4-0.5-0.6-1.1-0.6-1.9c0-0.8,0.2-1.4,0.6-1.9c0.4-0.5,1-0.7,1.7-0.7
			c0.7,0,1.3,0.3,1.7,0.7c0.4,0.5,0.7,1.1,0.7,1.9c0,0.8-0.2,1.4-0.7,1.9C41.2,6.6,40.6,6.9,39.9,6.9z M39.9,6.3
			c0.5,0,0.9-0.2,1.2-0.6c0.3-0.4,0.4-0.9,0.4-1.5c0-0.7-0.2-1.1-0.4-1.5c-0.3-0.4-0.7-0.6-1.2-0.6c-0.5,0-0.9,0.2-1.2,0.6
			c-0.3,0.4-0.4,0.9-0.4,1.5c0,0.7,0.2,1.2,0.4,1.5C39.1,6.2,39.4,6.3,39.9,6.3z"/>
		<path fill="#FFFFFF" d="M44,6.7v-5h2.8v0.5h-2.1v1.6h1.7v0.5h-1.7v2.3L44,6.7L44,6.7z"/>
		<path fill="#FFFFFF" d="M51,6.7v-5h2.8v0.5h-2.1v1.6h1.7v0.5h-1.7v1.8H54v0.5L51,6.7L51,6.7z"/>
		<path fill="#FFFFFF" d="M55.4,1.8h0.7v3.1c0,0.5,0.1,0.9,0.3,1.1c0.2,0.2,0.5,0.4,0.9,0.4c0.4,0,0.7-0.1,0.9-0.3
			c0.2-0.2,0.3-0.6,0.3-1.1V1.8H59v3.1c0,0.7-0.2,1.2-0.4,1.5c-0.3,0.3-0.7,0.5-1.3,0.5c-0.6,0-1.1-0.2-1.4-0.5
			c-0.3-0.3-0.5-0.8-0.5-1.5V1.8z"/>
		<path fill="#FFFFFF" d="M60.4,6.7v-5h1.5c0.5,0,0.9,0.1,1.1,0.3c0.3,0.2,0.4,0.5,0.4,0.9c0,0.7-0.4,1.1-1,1.4l1.7,2.3h-0.9
			l-1.4-2.1h-0.7v2.1H60.4z M61.1,4.1h0.3c0.9,0,1.3-0.4,1.3-1c0-0.5-0.4-0.8-1.1-0.8h-0.5V4.1z"/>
		<path fill="#FFFFFF" d="M67.3,6.9c-0.7,0-1.3-0.3-1.7-0.7C65.2,5.7,65,5,65,4.3c0-0.8,0.2-1.4,0.6-1.9c0.4-0.5,1-0.7,1.7-0.7
			c0.7,0,1.3,0.3,1.7,0.7c0.4,0.5,0.7,1.1,0.7,1.9c0,0.8-0.2,1.4-0.7,1.9C68.7,6.6,68.1,6.9,67.3,6.9z M67.4,6.3
			c0.5,0,0.9-0.2,1.2-0.6C68.8,5.4,69,4.9,69,4.2c0-0.7-0.2-1.1-0.4-1.5c-0.3-0.4-0.7-0.6-1.2-0.6c-0.5,0-0.9,0.2-1.2,0.6
			c-0.3,0.4-0.4,0.9-0.4,1.5c0,0.7,0.2,1.2,0.4,1.5C66.5,6.2,66.9,6.3,67.4,6.3z"/>
		<path fill="#FFFFFF" d="M71.4,6.7v-5h1.4c0.6,0,1,0.1,1.3,0.3c0.3,0.2,0.4,0.5,0.4,1c0,0.5-0.2,0.9-0.6,1.2
			c-0.4,0.3-0.9,0.5-1.5,0.5h-0.3v2H71.4z M72.2,4.2h0.3c0.4,0,0.8-0.1,1-0.3c0.3-0.2,0.4-0.5,0.4-0.8c0-0.3-0.1-0.5-0.3-0.6
			c-0.2-0.1-0.5-0.2-0.9-0.2h-0.5V4.2z"/>
		<path fill="#FFFFFF" d="M75.8,6.7v-5h2.8v0.5h-2.1v1.6h1.7v0.5h-1.7v1.8h2.3v0.5L75.8,6.7L75.8,6.7z"/>
	</g>
</g>
<g>
	<path fill="#FFFFFF" d="M99.4,40.8c-0.5,0.3-1.6,0.4-2.9,0.4c-4.8,0-7.1-4-7.1-9.3c0-7.1,3.9-9.9,7.6-9.9c1.3,0,2.2,0.3,2.5,0.5
		l-0.6,3.1c-0.4-0.2-0.9-0.4-1.7-0.4c-2.1,0-3.9,1.8-3.9,6.5c0,4.5,1.7,6.3,3.9,6.3c0.6,0,1.3-0.1,1.8-0.3L99.4,40.8z"/>
	<path fill="#FFFFFF" d="M112.4,31.3c0,7.1-2.5,10-6.1,10c-4.3,0-6-4.5-6-9.7c0-5.2,2-9.6,6.2-9.6C111.1,21.9,112.4,27,112.4,31.3z
		 M104.1,31.6c0,4.3,0.8,6.5,2.3,6.5c1.5,0,2.1-2.8,2.1-6.6c0-3.3-0.5-6.3-2.2-6.3C104.9,25.1,104.1,27.5,104.1,31.6z"/>
	<path fill="#FFFFFF" d="M118.5,22.2v12.3c0,2.8,0.8,3.6,1.8,3.6c1.1,0,1.8-0.8,1.8-3.6V22.2h3.7v11.6c0,4.8-1.8,7.5-5.5,7.5
		c-3.9,0-5.5-2.7-5.5-7.4V22.2H118.5z"/>
	<path fill="#FFFFFF" d="M129.1,41V22.2h3.4l2.9,7.4c0.6,1.5,1.5,3.9,2,5.5h0.1c-0.1-2-0.4-5.3-0.4-8.7v-4.2h3.2V41h-3.4l-2.9-7.2
		c-0.6-1.6-1.5-4-1.9-5.7h-0.1c0.1,1.9,0.2,4.8,0.2,8.6V41H129.1z"/>
	<path fill="#FFFFFF" d="M152.8,40.8c-0.5,0.3-1.6,0.4-2.9,0.4c-4.8,0-7.1-4-7.1-9.3c0-7.1,3.9-9.9,7.6-9.9c1.3,0,2.2,0.3,2.5,0.5
		l-0.6,3.1c-0.4-0.2-0.9-0.4-1.7-0.4c-2.1,0-3.9,1.8-3.9,6.5c0,4.5,1.7,6.3,3.9,6.3c0.6,0,1.3-0.1,1.8-0.3L152.8,40.8z"/>
	<path fill="#FFFFFF" d="M158.7,22.2V41H155V22.2H158.7z"/>
	<path fill="#FFFFFF" d="M162.1,22.2h3.7v15.8h4.8V41h-8.5V22.2z"/>
	<path fill="#FFFFFF" d="M188.8,31.3c0,7.1-2.5,10-6.1,10c-4.3,0-6-4.5-6-9.7c0-5.2,2-9.6,6.2-9.6C187.5,21.9,188.8,27,188.8,31.3z
		 M180.5,31.6c0,4.3,0.8,6.5,2.3,6.5c1.5,0,2.1-2.8,2.1-6.6c0-3.3-0.5-6.3-2.2-6.3C181.3,25.1,180.5,27.5,180.5,31.6z"/>
	<path fill="#FFFFFF" d="M191.3,22.2h8.2v3.2h-4.5v4.8h4.3v3.1h-4.3V41h-3.7V22.2z"/>
	<path fill="#FFFFFF" d="M215.1,32.8h-4.3v5.1h4.9V41h-8.5V22.2h8.2v3.2h-4.5v4.3h4.3V32.8z"/>
	<path fill="#FFFFFF" d="M221.9,22.2v12.3c0,2.8,0.8,3.6,1.8,3.6c1.1,0,1.8-0.8,1.8-3.6V22.2h3.7v11.6c0,4.8-1.8,7.5-5.5,7.5
		c-3.9,0-5.5-2.7-5.5-7.4V22.2H221.9z"/>
	<path fill="#FFFFFF" d="M232.5,22.4c1.1-0.2,2.6-0.4,4-0.4c2,0,3.8,0.3,5,1.4c1.1,1,1.5,2.3,1.5,3.9c0,2-1,3.8-2.9,4.7v0.1
		c1.3,0.5,1.9,1.7,2.3,3.7c0.4,2.1,0.9,4.4,1.2,5.1h-3.8c-0.2-0.5-0.6-2.4-0.9-4.5c-0.3-2.4-0.9-3-2.2-3h-0.5V41h-3.7V22.4z
		 M236.2,30.7h0.6c1.6,0,2.5-1.3,2.5-2.9c0-1.6-0.6-2.7-2.3-2.8c-0.3,0-0.7,0-0.9,0.1V30.7z"/>
	<path fill="#FFFFFF" d="M257,31.3c0,7.1-2.5,10-6.1,10c-4.3,0-6-4.5-6-9.7c0-5.2,2-9.6,6.2-9.6C255.7,21.9,257,27,257,31.3z
		 M248.8,31.6c0,4.3,0.8,6.5,2.3,6.5c1.5,0,2.1-2.8,2.1-6.6c0-3.3-0.5-6.3-2.2-6.3C249.6,25.1,248.8,27.5,248.8,31.6z"/>
	<path fill="#FFFFFF" d="M259.5,22.4c1-0.2,2.4-0.4,3.8-0.4c2.2,0,3.9,0.3,5.1,1.5c1.1,1,1.6,2.5,1.6,4.1c0,2-0.6,3.5-1.6,4.5
		c-1.2,1.2-3.1,1.8-4.6,1.8c-0.3,0-0.5,0-0.7,0v7h-3.7V22.4z M263.2,31c0.2,0.1,0.4,0.1,0.6,0.1c1.8,0,2.7-1.3,2.7-3.1
		c0-1.7-0.7-2.9-2.4-2.9c-0.3,0-0.7,0.1-0.9,0.1V31z"/>
	<path fill="#FFFFFF" d="M280.5,32.8h-4.3v5.1h4.9V41h-8.5V22.2h8.2v3.2h-4.5v4.3h4.3V32.8z"/>
</g>
</svg>
